<?xml version="1.0" encoding="UTF-8"?>
<!DOCTYPE svg
PUBLIC "-//W3C//DTD SVG 1.1//EN"
       "http://www.w3.org/Graphics/SVG/1.1/DTD/svg11.dtd">
<svg viewBox="55 92 885 583" width="830px" height="491px" xmlns="http://www.w3.org/2000/svg" version="1.1">
   <line x1="774" y1="316" x2="764" y2="316" style="stroke:#bbb;stroke-width:1;"/>
   <line x1="223" y1="458" x2="213" y2="458" style="stroke:#bbb;stroke-width:1;"/>
   <line x1="764" y1="316" x2="223" y2="458" style="stroke:#bbb;stroke-width:1;"/>
   <line x1="766.5" y1="316" x2="770.03553390593" y2="319.53553390593" style="stroke:#bbb;stroke-width:2;"/>
   <line x1="766.5" y1="316" x2="770.03553390593" y2="312.46446609407" style="stroke:#bbb;stroke-width:2;"/>
   <line x1="218" y1="458" x2="221.53553390593" y2="461.53553390593" style="stroke:#bbb;stroke-width:2;"/>
   <line x1="218" y1="458" x2="221.53553390593" y2="454.46446609407" style="stroke:#bbb;stroke-width:2;"/>
   <line x1="842" y1="524" x2="852" y2="524" style="stroke:#0bf;stroke-width:1;"/>
   <line x1="862" y1="296" x2="852" y2="296" style="stroke:#0bf;stroke-width:1;"/>
   <line x1="852" y1="524" x2="862" y2="296" style="stroke:#0bf;stroke-width:1;"/>
   <line x1="849.5" y1="524" x2="845.96446609407" y2="527.53553390593" style="stroke:#0bf;stroke-width:2;"/>
   <line x1="849.5" y1="524" x2="845.96446609407" y2="520.46446609407" style="stroke:#0bf;stroke-width:2;"/>
   <line x1="857" y1="296" x2="860.53553390593" y2="299.53553390593" style="stroke:#0bf;stroke-width:2;"/>
   <line x1="857" y1="296" x2="860.53553390593" y2="292.46446609407" style="stroke:#0bf;stroke-width:2;"/>
   <line x1="696" y1="544" x2="686" y2="544" style="stroke:#cb0;stroke-width:1;"/>
   <line x1="540" y1="314" x2="530" y2="314" style="stroke:#cb0;stroke-width:1;"/>
   <line x1="686" y1="544" x2="540" y2="314" style="stroke:#cb0;stroke-width:1;"/>
   <line x1="688.5" y1="544" x2="692.03553390593" y2="547.53553390593" style="stroke:#cb0;stroke-width:2;"/>
   <line x1="688.5" y1="544" x2="692.03553390593" y2="540.46446609407" style="stroke:#cb0;stroke-width:2;"/>
   <line x1="535" y1="314" x2="538.53553390593" y2="317.53553390593" style="stroke:#cb0;stroke-width:2;"/>
   <line x1="535" y1="314" x2="538.53553390593" y2="310.46446609407" style="stroke:#cb0;stroke-width:2;"/>
   <line x1="526" y1="137" x2="536" y2="137" style="stroke:#333;stroke-width:1;"/>
   <line x1="764" y1="296" x2="774" y2="296" style="stroke:#333;stroke-width:1;"/>
   <line x1="536" y1="137" x2="764" y2="296" style="stroke:#333;stroke-width:1;"/>
   <line x1="533.5" y1="137" x2="529.96446609407" y2="140.53553390593" style="stroke:#333;stroke-width:2;"/>
   <line x1="533.5" y1="137" x2="529.96446609407" y2="133.46446609407" style="stroke:#333;stroke-width:2;"/>
   <line x1="769" y1="296" x2="765.46446609407" y2="299.53553390593" style="stroke:#333;stroke-width:2;"/>
   <line x1="769" y1="296" x2="765.46446609407" y2="292.46446609407" style="stroke:#333;stroke-width:2;"/>
   <rect width="78" height="20" x="774" y="266" style="fill:#007;stroke:black;"/>
   <text width="78" height="20" x="779" y="280" style="fill:#fff;" font-family="Arial" font-size="16px"> BESOIN</text>
   <rect width="78" height="20" x="774" y="286" style="fill:#aea;stroke:black;"/>
   <text width="78" height="20" x="779" y="300" style="fill:black;" font-family="Arial" font-size="16px">ID</text>
   <rect width="78" height="20" x="774" y="306" style="fill:none;stroke:black;"/>
   <text width="78" height="20" x="779" y="320" style="fill:black;" font-family="Arial" font-size="16px">ID_Owner</text>
   <rect width="78" height="20" x="774" y="326" style="fill:none;stroke:black;"/>
   <text width="78" height="20" x="779" y="340" style="fill:black;" font-family="Arial" font-size="16px">Title</text>
   <rect width="78" height="20" x="774" y="346" style="fill:none;stroke:black;"/>
   <text width="78" height="20" x="779" y="360" style="fill:black;" font-family="Arial" font-size="16px">Content</text>
   <rect width="182" height="20" x="348" y="284" style="fill:#007;stroke:black;"/>
   <text width="182" height="20" x="353" y="298" style="fill:#fff;" font-family="Arial" font-size="16px"> CATEGORIE_CONTENT</text>
   <rect width="182" height="20" x="348" y="304" style="fill:#aea;stroke:black;"/>
   <text width="182" height="20" x="353" y="318" style="fill:black;" font-family="Arial" font-size="16px">ID</text>
   <rect width="182" height="20" x="348" y="324" style="fill:none;stroke:black;"/>
   <text width="182" height="20" x="353" y="338" style="fill:black;" font-family="Arial" font-size="16px">NAME</text>
   <rect width="146" height="20" x="696" y="494" style="fill:#007;stroke:black;"/>
   <text width="146" height="20" x="701" y="508" style="fill:#fff;" font-family="Arial" font-size="16px"> CATEGORIE_LINK</text>
   <rect width="146" height="20" x="696" y="514" style="fill:none;stroke:black;"/>
   <text width="146" height="20" x="701" y="528" style="fill:black;" font-family="Arial" font-size="16px">ID_BESOIN</text>
   <rect width="146" height="20" x="696" y="534" style="fill:none;stroke:black;"/>
   <text width="146" height="20" x="701" y="548" style="fill:black;" font-family="Arial" font-size="16px">ID_CATEGORIE</text>
   <rect width="154" height="20" x="70" y="221" style="fill:#007;stroke:black;"/>
   <text width="154" height="20" x="75" y="235" style="fill:#fff;" font-family="Arial" font-size="16px"> LANGUE_CONTENT</text>
   <rect width="154" height="20" x="70" y="241" style="fill:#aea;stroke:black;"/>
   <text width="154" height="20" x="75" y="255" style="fill:black;" font-family="Arial" font-size="16px">ID</text>
   <rect width="154" height="20" x="70" y="261" style="fill:none;stroke:black;"/>
   <text width="154" height="20" x="75" y="275" style="fill:black;" font-family="Arial" font-size="16px">NAME</text>
   <rect width="118" height="20" x="408" y="107" style="fill:#007;stroke:black;"/>
   <text width="118" height="20" x="413" y="121" style="fill:#fff;" font-family="Arial" font-size="16px"> LANGUE_LINK</text>
   <rect width="118" height="20" x="408" y="127" style="fill:none;stroke:black;"/>
   <text width="118" height="20" x="413" y="141" style="fill:black;" font-family="Arial" font-size="16px">ID_BESOIN</text>
   <rect width="118" height="20" x="408" y="147" style="fill:none;stroke:black;"/>
   <text width="118" height="20" x="413" y="161" style="fill:black;" font-family="Arial" font-size="16px">ID_LANGUE</text>
   <rect width="160" height="20" x="710" y="112" style="fill:#007;stroke:black;"/>
   <text width="160" height="20" x="715" y="126" style="fill:#fff;" font-family="Arial" font-size="16px"> LAUREAT_PENDING</text>
   <rect width="160" height="20" x="710" y="132" style="fill:none;stroke:black;"/>
   <text width="160" height="20" x="715" y="146" style="fill:black;" font-family="Arial" font-size="16px">email</text>
   <rect width="65" height="20" x="148" y="428" style="fill:#007;stroke:black;"/>
   <text width="65" height="20" x="153" y="442" style="fill:#fff;" font-family="Arial" font-size="16px"> User</text>
   <rect width="65" height="20" x="148" y="448" style="fill:#aea;stroke:black;"/>
   <text width="65" height="20" x="153" y="462" style="fill:black;" font-family="Arial" font-size="16px">ID</text>
   <rect width="65" height="20" x="148" y="468" style="fill:none;stroke:black;"/>
   <text width="65" height="20" x="153" y="482" style="fill:black;" font-family="Arial" font-size="16px">EMAIL</text>
   <rect width="65" height="20" x="148" y="488" style="fill:none;stroke:black;"/>
   <text width="65" height="20" x="153" y="502" style="fill:black;" font-family="Arial" font-size="16px">PWD</text>
   <rect width="65" height="20" x="148" y="508" style="fill:none;stroke:black;"/>
   <text width="65" height="20" x="153" y="522" style="fill:black;" font-family="Arial" font-size="16px">TYPE</text>
   <rect width="65" height="20" x="148" y="528" style="fill:none;stroke:black;"/>
   <text width="65" height="20" x="153" y="542" style="fill:black;" font-family="Arial" font-size="16px">NAME</text>
   <rect width="65" height="20" x="148" y="548" style="fill:none;stroke:black;"/>
   <text width="65" height="20" x="153" y="562" style="fill:black;" font-family="Arial" font-size="16px">TOKEN</text>
</svg>
